<svg id="Layer_3_copy_3" data-name="Layer 3 copy 3" xmlns="http://www.w3.org/2000/svg" xmlns:xlink="http://www.w3.org/1999/xlink" viewBox="0 0 385.31 493.46"><defs><style>.cls-1{fill:none;}.cls-2{fill:#ddfcfe;}.cls-3{opacity:0.23;}.cls-4{clip-path:url(#clip-path);}.cls-5{clip-path:url(#clip-path-2);}.cls-6{clip-path:url(#clip-path-3);}.cls-7{fill:#21333f;}.cls-8{clip-path:url(#clip-path-4);}.cls-9{clip-path:url(#clip-path-5);}.cls-10{clip-path:url(#clip-path-6);}.cls-11{clip-path:url(#clip-path-7);}.cls-12{clip-path:url(#clip-path-8);}.cls-13{clip-path:url(#clip-path-9);}.cls-14{clip-path:url(#clip-path-10);}.cls-15{clip-path:url(#clip-path-11);}.cls-16{clip-path:url(#clip-path-12);}.cls-17{clip-path:url(#clip-path-13);}.cls-18{clip-path:url(#clip-path-14);}.cls-19{clip-path:url(#clip-path-15);}.cls-20{clip-path:url(#clip-path-16);}.cls-21{clip-path:url(#clip-path-17);}.cls-22{clip-path:url(#clip-path-18);}.cls-23{clip-path:url(#clip-path-19);}.cls-24{clip-path:url(#clip-path-20);}.cls-25{clip-path:url(#clip-path-21);}.cls-26{clip-path:url(#clip-path-22);}.cls-27{clip-path:url(#clip-path-23);}.cls-28{clip-path:url(#clip-path-24);}.cls-29{clip-path:url(#clip-path-25);}.cls-30{clip-path:url(#clip-path-26);}.cls-31{clip-path:url(#clip-path-27);}.cls-32{clip-path:url(#clip-path-28);}.cls-33{clip-path:url(#clip-path-29);}.cls-34{clip-path:url(#clip-path-30);}.cls-35{clip-path:url(#clip-path-31);}.cls-36{clip-path:url(#clip-path-32);}.cls-37{clip-path:url(#clip-path-33);}.cls-38{clip-path:url(#clip-path-34);}.cls-39{clip-path:url(#clip-path-35);}.cls-40{clip-path:url(#clip-path-36);}.cls-41{clip-path:url(#clip-path-37);}.cls-42{clip-path:url(#clip-path-38);}.cls-43{clip-path:url(#clip-path-39);}.cls-44{clip-path:url(#clip-path-40);}.cls-45{clip-path:url(#clip-path-41);}.cls-46{clip-path:url(#clip-path-42);}.cls-47{clip-path:url(#clip-path-43);}.cls-48{clip-path:url(#clip-path-44);}.cls-49{clip-path:url(#clip-path-45);}.cls-50{clip-path:url(#clip-path-46);}.cls-51{clip-path:url(#clip-path-47);}.cls-52{clip-path:url(#clip-path-48);}.cls-53{clip-path:url(#clip-path-49);}.cls-54{clip-path:url(#clip-path-50);}.cls-55{clip-path:url(#clip-path-51);}.cls-56{clip-path:url(#clip-path-52);}.cls-57{clip-path:url(#clip-path-53);}.cls-58{clip-path:url(#clip-path-54);}.cls-59{clip-path:url(#clip-path-55);}.cls-60{clip-path:url(#clip-path-56);}.cls-61{clip-path:url(#clip-path-57);}.cls-62{clip-path:url(#clip-path-58);}.cls-63{clip-path:url(#clip-path-59);}</style><clipPath id="clip-path"><rect class="cls-1" x="2.23" width="382.29" height="492"/></clipPath><clipPath id="clip-path-2"><ellipse class="cls-1" cx="54.11" cy="68.79" rx="45.31" ry="43.09"/></clipPath><clipPath id="clip-path-3"><rect class="cls-1" x="39.52" y="37.37" width="14.2" height="64.95"/></clipPath><clipPath id="clip-path-4"><rect class="cls-1" x="53.72" y="37.37" width="14.2" height="64.95"/></clipPath><clipPath id="clip-path-5"><polygon class="cls-1" points="62.16 37.13 62.16 37.13 95.47 37.13 95.47 83.44 62.16 83.44 62.16 37.13"/></clipPath><clipPath id="clip-path-6"><polygon class="cls-1" points="45.28 37.13 45.28 37.13 11.97 37.13 11.97 83.44 45.28 83.44 45.28 37.13"/></clipPath><clipPath id="clip-path-7"><polygon class="cls-1" points="33.54 17.72 33.54 17.72 48.49 17.72 48.49 29.91 33.54 29.91 33.54 17.72"/></clipPath><clipPath id="clip-path-8"><polygon class="cls-1" points="73.66 17.72 73.66 17.72 58.71 17.72 58.71 29.91 73.66 29.91 73.66 17.72"/></clipPath><clipPath id="clip-path-9"><ellipse class="cls-1" cx="243.89" cy="56.21" rx="45.31" ry="43.09"/></clipPath><clipPath id="clip-path-10"><rect class="cls-1" x="229.3" y="22.69" width="14.2" height="64.95"/></clipPath><clipPath id="clip-path-11"><rect class="cls-1" x="243.5" y="22.69" width="14.2" height="64.95"/></clipPath><clipPath id="clip-path-12"><polygon class="cls-1" points="251.94 87.88 251.94 87.88 285.25 87.88 285.25 41.56 251.94 41.56 251.94 87.88"/></clipPath><clipPath id="clip-path-13"><polygon class="cls-1" points="235.06 87.88 235.06 87.88 201.75 87.88 201.75 41.56 235.06 41.56 235.06 87.88"/></clipPath><clipPath id="clip-path-14"><polygon class="cls-1" points="223.31 107.28 223.31 107.28 238.26 107.28 238.26 95.09 223.31 95.09 223.31 107.28"/></clipPath><clipPath id="clip-path-15"><polygon class="cls-1" points="263.44 107.28 263.44 107.28 248.49 107.28 248.49 95.09 263.44 95.09 263.44 107.28"/></clipPath><clipPath id="clip-path-16"><polygon class="cls-1" points="-32.73 213.63 -32.73 213.63 0.58 213.63 0.58 167.32 -32.73 167.32 -32.73 213.63"/></clipPath><clipPath id="clip-path-17"><ellipse class="cls-1" cx="149" cy="194.55" rx="45.31" ry="43.09"/></clipPath><clipPath id="clip-path-18"><rect class="cls-1" x="134.41" y="163.13" width="14.2" height="64.95"/></clipPath><clipPath id="clip-path-19"><rect class="cls-1" x="148.61" y="163.13" width="14.2" height="64.95"/></clipPath><clipPath id="clip-path-20"><polygon class="cls-1" points="157.05 162.88 157.05 162.88 190.36 162.88 190.36 209.2 157.05 209.2 157.05 162.88"/></clipPath><clipPath id="clip-path-21"><polygon class="cls-1" points="140.17 162.88 140.17 162.88 106.86 162.88 106.86 209.2 140.17 209.2 140.17 162.88"/></clipPath><clipPath id="clip-path-22"><polygon class="cls-1" points="128.43 143.48 128.43 143.48 143.38 143.48 143.38 155.67 128.43 155.67 128.43 143.48"/></clipPath><clipPath id="clip-path-23"><polygon class="cls-1" points="168.55 143.48 168.55 143.48 153.6 143.48 153.6 155.67 168.55 155.67 168.55 143.48"/></clipPath><clipPath id="clip-path-24"><ellipse class="cls-1" cx="338.78" cy="181.97" rx="45.31" ry="43.09"/></clipPath><clipPath id="clip-path-25"><rect class="cls-1" x="324.19" y="148.44" width="14.2" height="64.95"/></clipPath><clipPath id="clip-path-26"><rect class="cls-1" x="338.39" y="148.44" width="14.2" height="64.95"/></clipPath><clipPath id="clip-path-27"><polygon class="cls-1" points="346.83 213.63 346.83 213.63 380.13 213.63 380.13 167.32 346.83 167.32 346.83 213.63"/></clipPath><clipPath id="clip-path-28"><polygon class="cls-1" points="329.94 213.63 329.94 213.63 296.64 213.63 296.64 167.32 329.94 167.32 329.94 213.63"/></clipPath><clipPath id="clip-path-29"><polygon class="cls-1" points="318.2 233.04 318.2 233.04 333.15 233.04 333.15 220.85 318.2 220.85 318.2 233.04"/></clipPath><clipPath id="clip-path-30"><polygon class="cls-1" points="358.33 233.04 358.33 233.04 343.38 233.04 343.38 220.85 358.33 220.85 358.33 233.04"/></clipPath><clipPath id="clip-path-31"><ellipse class="cls-1" cx="54.11" cy="320.31" rx="45.31" ry="43.09"/></clipPath><clipPath id="clip-path-32"><rect class="cls-1" x="39.52" y="288.89" width="14.2" height="64.95"/></clipPath><clipPath id="clip-path-33"><rect class="cls-1" x="53.72" y="288.89" width="14.2" height="64.95"/></clipPath><clipPath id="clip-path-34"><polygon class="cls-1" points="62.16 288.64 62.16 288.64 95.47 288.64 95.47 334.96 62.16 334.96 62.16 288.64"/></clipPath><clipPath id="clip-path-35"><polygon class="cls-1" points="45.28 288.64 45.28 288.64 11.97 288.64 11.97 334.96 45.28 334.96 45.28 288.64"/></clipPath><clipPath id="clip-path-36"><polygon class="cls-1" points="33.54 269.24 33.54 269.24 48.49 269.24 48.49 281.43 33.54 281.43 33.54 269.24"/></clipPath><clipPath id="clip-path-37"><polygon class="cls-1" points="73.66 269.24 73.66 269.24 58.71 269.24 58.71 281.43 73.66 281.43 73.66 269.24"/></clipPath><clipPath id="clip-path-38"><ellipse class="cls-1" cx="243.89" cy="307.73" rx="45.31" ry="43.09"/></clipPath><clipPath id="clip-path-39"><rect class="cls-1" x="229.3" y="274.2" width="14.2" height="64.95"/></clipPath><clipPath id="clip-path-40"><rect class="cls-1" x="243.5" y="274.2" width="14.2" height="64.95"/></clipPath><clipPath id="clip-path-41"><polygon class="cls-1" points="251.94 339.39 251.94 339.39 285.25 339.39 285.25 293.08 251.94 293.08 251.94 339.39"/></clipPath><clipPath id="clip-path-42"><polygon class="cls-1" points="235.06 339.39 235.06 339.39 201.75 339.39 201.75 293.08 235.06 293.08 235.06 339.39"/></clipPath><clipPath id="clip-path-43"><polygon class="cls-1" points="223.31 358.8 223.31 358.8 238.26 358.8 238.26 346.61 223.31 346.61 223.31 358.8"/></clipPath><clipPath id="clip-path-44"><polygon class="cls-1" points="263.44 358.8 263.44 358.8 248.49 358.8 248.49 346.61 263.44 346.61 263.44 358.8"/></clipPath><clipPath id="clip-path-45"><polygon class="cls-1" points="-32.73 465.15 -32.73 465.15 0.58 465.15 0.58 418.84 -32.73 418.84 -32.73 465.15"/></clipPath><clipPath id="clip-path-46"><ellipse class="cls-1" cx="149" cy="446.07" rx="45.31" ry="43.09"/></clipPath><clipPath id="clip-path-47"><rect class="cls-1" x="134.41" y="414.65" width="14.2" height="64.95"/></clipPath><clipPath id="clip-path-48"><rect class="cls-1" x="148.61" y="414.65" width="14.2" height="64.95"/></clipPath><clipPath id="clip-path-49"><polygon class="cls-1" points="157.05 414.4 157.05 414.4 190.36 414.4 190.36 460.72 157.05 460.72 157.05 414.4"/></clipPath><clipPath id="clip-path-50"><polygon class="cls-1" points="140.17 414.4 140.17 414.4 106.86 414.4 106.86 460.72 140.17 460.72 140.17 414.4"/></clipPath><clipPath id="clip-path-51"><polygon class="cls-1" points="128.43 395 128.43 395 143.38 395 143.38 407.19 128.43 407.19 128.43 395"/></clipPath><clipPath id="clip-path-52"><polygon class="cls-1" points="168.55 395 168.55 395 153.6 395 153.6 407.19 168.55 407.19 168.55 395"/></clipPath><clipPath id="clip-path-53"><ellipse class="cls-1" cx="338.78" cy="433.49" rx="45.31" ry="43.09"/></clipPath><clipPath id="clip-path-54"><rect class="cls-1" x="324.19" y="399.96" width="14.2" height="64.95"/></clipPath><clipPath id="clip-path-55"><rect class="cls-1" x="338.39" y="399.96" width="14.2" height="64.95"/></clipPath><clipPath id="clip-path-56"><polygon class="cls-1" points="346.83 465.15 346.83 465.15 380.13 465.15 380.13 418.84 346.83 418.84 346.83 465.15"/></clipPath><clipPath id="clip-path-57"><polygon class="cls-1" points="329.94 465.15 329.94 465.15 296.64 465.15 296.64 418.84 329.94 418.84 329.94 465.15"/></clipPath><clipPath id="clip-path-58"><polygon class="cls-1" points="318.2 484.56 318.2 484.56 333.15 484.56 333.15 472.37 318.2 472.37 318.2 484.56"/></clipPath><clipPath id="clip-path-59"><polygon class="cls-1" points="358.33 484.56 358.33 484.56 343.38 484.56 343.38 472.37 358.33 472.37 358.33 484.56"/></clipPath></defs><rect class="cls-2" width="385.31" height="493.46"/><g class="cls-3"><g class="cls-4"><g class="cls-3"><g class="cls-5"><g class="cls-6"><path class="cls-7" d="M53.74,37.66a20.65,20.65,0,0,0-8.05,3.9,9.79,9.79,0,0,0-2.43,3.22,16.65,16.65,0,0,0-.72,1.86,16.41,16.41,0,0,0-.37,2,27,27,0,0,0,.58,8.53,64.66,64.66,0,0,0,2.36,8.71c.88,2.92,2,5.81,3,8.75s2.09,6,2.93,9a94.23,94.23,0,0,1,2.36,9.26c.14.84.2,1.55.35,2.3l.46,2.28c.33,1.53.65,3.09.94,4.65v0a.13.13,0,0,1-.11.17.14.14,0,0,1-.17-.09l-1.6-4.42a41.83,41.83,0,0,1-1.37-4.51c-.86-3-2-5.93-3-8.88-2.09-5.9-4.61-11.64-6.56-17.63A65,65,0,0,1,40,57.64a26.73,26.73,0,0,1-.12-9.44,12.15,12.15,0,0,1,4.9-7.91,19.05,19.05,0,0,1,8.92-2.92.15.15,0,0,1,.16.13.16.16,0,0,1-.11.16Z"/></g><g class="cls-8"><path class="cls-7" d="M53.71,37.66a20.61,20.61,0,0,1,8,3.9,9.79,9.79,0,0,1,2.43,3.22,14.91,14.91,0,0,1,.72,1.86,14.69,14.69,0,0,1,.37,2,26.71,26.71,0,0,1-.58,8.53,66.13,66.13,0,0,1-2.35,8.71c-.89,2.92-2,5.81-3,8.75s-2.09,6-2.92,9A94.24,94.24,0,0,0,54,92.89c-.13.84-.2,1.55-.35,2.3l-.46,2.28c-.33,1.53-.65,3.09-.94,4.65v0a.14.14,0,0,0,.12.17.13.13,0,0,0,.16-.09l1.61-4.42a44.16,44.16,0,0,0,1.36-4.51c.86-3,2-5.93,3-8.88,2.09-5.9,4.61-11.64,6.57-17.63a65,65,0,0,0,2.29-9.14,26.73,26.73,0,0,0,.12-9.44,12.17,12.17,0,0,0-4.89-7.91,19.09,19.09,0,0,0-8.92-2.92.14.14,0,0,0-.16.13.14.14,0,0,0,.1.16Z"/></g></g><g class="cls-9"><path class="cls-7" d="M68.85,40.4a10.79,10.79,0,0,1,5.3,3.89c2.39,3.27,3.6,7.84,3.68,14,0,.91,0,1.81,0,2.71a47,47,0,0,0,.4,8.06c.78,4.71,2.94,8.52,6.1,10.74l.68.44a13.94,13.94,0,0,1-4.84-2.55,20.84,20.84,0,0,1-7.64-13.07A43.71,43.71,0,0,1,72.24,57a60.85,60.85,0,0,0-.13-6.86,20.74,20.74,0,0,0-3.26-9.74m-2.12-3.27a8.94,8.94,0,0,0-4.57,1.24c4.46,2,6.57,7.19,7,12s-.32,9.79.43,14.6A23.86,23.86,0,0,0,78.34,80a14.79,14.79,0,0,0,8.85,3.48,7.72,7.72,0,0,0,1,0c3.53-.33,7-3,7.32-6.55a6.42,6.42,0,0,1-4.79,2A8.26,8.26,0,0,1,86,77.34c-2.82-2-4.32-5.41-4.88-8.81s-.31-6.88-.36-10.32c-.07-5.5-1-11.22-4.25-15.66-2.3-3.14-6-5.42-9.79-5.42Z"/></g><g class="cls-10"><path class="cls-7" d="M38.6,40.4a10.7,10.7,0,0,0-5.3,3.89c-2.4,3.27-3.6,7.84-3.69,14,0,.91,0,1.81,0,2.71a46,46,0,0,1-.4,8.06c-.77,4.71-2.94,8.52-6.1,10.74l-.68.44a13.85,13.85,0,0,0,4.84-2.55,20.85,20.85,0,0,0,7.65-13.07A44.75,44.75,0,0,0,35.2,57a63.3,63.3,0,0,1,.13-6.86A20.64,20.64,0,0,1,38.6,40.4m2.12-3.27a8.93,8.93,0,0,1,4.56,1.24c-4.46,2-6.57,7.19-7,12s.32,9.79-.42,14.6A23.83,23.83,0,0,1,29.1,80a14.79,14.79,0,0,1-8.85,3.48,7.72,7.72,0,0,1-1,0c-3.53-.33-7-3-7.32-6.55a6.44,6.44,0,0,0,4.8,2,8.23,8.23,0,0,0,4.66-1.45c2.82-2,4.33-5.41,4.88-8.81s.31-6.88.36-10.32c.07-5.5,1-11.22,4.25-15.66,2.31-3.14,6-5.42,9.8-5.42Z"/></g><path class="cls-7" d="M54.11,31.46c-4.64,0-8.4.92-8.4,2.06s3.76,2.06,8.4,2.06,8.4-.92,8.4-2.06-3.76-2.06-8.4-2.06Z"/><path class="cls-7" d="M54.11,18a7.63,7.63,0,0,1,1,3.51,10.61,10.61,0,0,1-1,4.95,10.77,10.77,0,0,1-1-4.95,7.62,7.62,0,0,1,1-3.51m0-4.88s-4,3.76-4,8.39,1.77,8.4,4,8.4,4-3.76,4-8.4-4-8.39-4-8.39Z"/><g class="cls-11"><path class="cls-7" d="M43.81,22.21a4.88,4.88,0,0,1,1,1.61,9,9,0,0,1,.62,2.11A9.35,9.35,0,0,1,45,24.8a13.83,13.83,0,0,0-1.21-2.59m-4.24-4.49c-3.19,0-6,3.14-6,3.14a6.83,6.83,0,0,1,2.36-.41c2,0,4.8.89,6.34,5.32.68,2,1.91,4.14,3.69,4.14l.3,0c1.94-.26,3.2-2.66,1.36-7.18-1.48-3.64-4.77-4.87-7.83-5Z"/></g><g class="cls-12"><path class="cls-7" d="M63.39,22.21a4.73,4.73,0,0,0-1,1.61,9.69,9.69,0,0,0-.63,2.11,11.15,11.15,0,0,0,.47-1.13,13.83,13.83,0,0,1,1.21-2.59m4.23-4.49c3.2,0,6,3.14,6,3.14a6.83,6.83,0,0,0-2.36-.41c-2,0-4.8.89-6.34,5.32-.68,2-1.91,4.14-3.69,4.14l-.3,0c-1.94-.26-3.2-2.66-1.36-7.18,1.48-3.64,4.77-4.87,7.82-5Z"/></g><g class="cls-13"><g class="cls-14"><path class="cls-7" d="M243.51,87.34a20.61,20.61,0,0,1-8-3.9A9.79,9.79,0,0,1,233,80.22a14.91,14.91,0,0,1-.72-1.86,14.69,14.69,0,0,1-.37-2,26.71,26.71,0,0,1,.58-8.53,66.13,66.13,0,0,1,2.35-8.71c.89-2.92,2-5.81,3-8.75s2.09-6,2.92-9a94.24,94.24,0,0,0,2.37-9.26c.13-.84.2-1.55.35-2.3l.46-2.28c.33-1.53.65-3.09.94-4.65v0a.14.14,0,0,0-.12-.17.14.14,0,0,0-.16.09l-1.61,4.42a44.16,44.16,0,0,0-1.36,4.51c-.86,3-2,5.93-3,8.88-2.09,5.9-4.61,11.64-6.57,17.63a65,65,0,0,0-2.29,9.14,26.73,26.73,0,0,0-.12,9.44,12.17,12.17,0,0,0,4.89,7.91,19,19,0,0,0,8.92,2.92.14.14,0,0,0,.16-.13.13.13,0,0,0-.1-.15Z"/></g><g class="cls-15"><path class="cls-7" d="M243.48,87.34a20.58,20.58,0,0,0,8.05-3.9A9.79,9.79,0,0,0,254,80.22a16.65,16.65,0,0,0,.72-1.86,16.41,16.41,0,0,0,.37-2,27,27,0,0,0-.58-8.53,66.13,66.13,0,0,0-2.35-8.71c-.89-2.92-2-5.81-3-8.75s-2.09-6-2.93-9a94.23,94.23,0,0,1-2.36-9.26c-.13-.84-.2-1.55-.35-2.3L243,27.53c-.33-1.53-.65-3.09-.94-4.65v0a.14.14,0,0,1,.11-.17.15.15,0,0,1,.17.09l1.6,4.42a41.83,41.83,0,0,1,1.37,4.51c.86,3,2,5.93,3,8.88,2.09,5.9,4.61,11.64,6.57,17.63a66.4,66.4,0,0,1,2.29,9.14,26.73,26.73,0,0,1,.12,9.44,12.15,12.15,0,0,1-4.9,7.91,18.94,18.94,0,0,1-8.92,2.92.15.15,0,0,1-.16-.13.14.14,0,0,1,.11-.15Z"/></g></g><g class="cls-16"><path class="cls-7" d="M258.62,84.6a20.64,20.64,0,0,0,3.27-9.74A63.3,63.3,0,0,0,262,68a44.75,44.75,0,0,1,.27-7.57,20.85,20.85,0,0,1,7.65-13.07,13.85,13.85,0,0,1,4.84-2.55l-.68.44c-3.16,2.22-5.33,6-6.1,10.74a46,46,0,0,0-.4,8.06c0,.9,0,1.81,0,2.71-.09,6.11-1.29,10.68-3.69,13.95a10.7,10.7,0,0,1-5.3,3.89m-2.12,3.27c3.78,0,7.49-2.28,9.8-5.42,3.25-4.44,4.18-10.16,4.25-15.66.05-3.44-.2-6.92.36-10.32s2.06-6.82,4.88-8.81a8.23,8.23,0,0,1,4.66-1.45,6.43,6.43,0,0,1,4.8,1.95c-.35-3.53-3.79-6.22-7.32-6.55-.32,0-.64,0-1,0A14.79,14.79,0,0,0,268.12,45a23.83,23.83,0,0,0-8.74,15c-.74,4.81,0,9.74-.42,14.6s-2.56,10.06-7,12a8.93,8.93,0,0,0,4.56,1.24Z"/></g><g class="cls-17"><path class="cls-7" d="M228.37,84.6a20.74,20.74,0,0,1-3.26-9.74A60.85,60.85,0,0,1,225,68a43.71,43.71,0,0,0-.28-7.57,20.84,20.84,0,0,0-7.64-13.07,13.94,13.94,0,0,0-4.84-2.55l.68.44c3.16,2.22,5.32,6,6.1,10.74a47,47,0,0,1,.4,8.06c0,.9,0,1.81,0,2.71.08,6.11,1.29,10.68,3.68,13.95a10.79,10.79,0,0,0,5.3,3.89m2.12,3.27c-3.77,0-7.49-2.28-9.79-5.42-3.25-4.44-4.18-10.16-4.25-15.66,0-3.44.2-6.92-.36-10.32s-2.06-6.82-4.88-8.81a8.26,8.26,0,0,0-4.67-1.45,6.42,6.42,0,0,0-4.79,1.95c.35-3.53,3.79-6.22,7.32-6.55.32,0,.64,0,1,0A14.79,14.79,0,0,1,218.88,45a23.86,23.86,0,0,1,8.73,15c.75,4.81,0,9.74.43,14.6s2.56,10.06,7,12a8.94,8.94,0,0,1-4.57,1.24Z"/></g><path class="cls-7" d="M243.89,93.54c-4.64,0-8.4-.92-8.4-2.06s3.76-2.06,8.4-2.06,8.4.93,8.4,2.06-3.76,2.06-8.4,2.06Z"/><path class="cls-7" d="M243.89,107a7.6,7.6,0,0,0,1-3.51,10.77,10.77,0,0,0-1-4.95,10.64,10.64,0,0,0-1,4.95,7.63,7.63,0,0,0,1,3.51m0,4.88s-4-3.75-4-8.39,1.77-8.4,4-8.4,4,3.76,4,8.4-4,8.39-4,8.39Z"/><g class="cls-18"><path class="cls-7" d="M233.58,102.79a14,14,0,0,0,1.22-2.59,9.35,9.35,0,0,1,.46-1.13,9,9,0,0,1-.62,2.11,4.75,4.75,0,0,1-1.06,1.61m-4.23,4.49h.19c3.05-.12,6.34-1.35,7.83-5,1.84-4.52.58-6.92-1.37-7.18l-.29,0c-1.78,0-3,2.17-3.7,4.14-1.53,4.43-4.32,5.32-6.33,5.32a6.93,6.93,0,0,1-2.37-.41s2.84,3.14,6,3.14Z"/></g><g class="cls-19"><path class="cls-7" d="M253.17,102.79A13.83,13.83,0,0,1,252,100.2a11.15,11.15,0,0,0-.47-1.13,9.57,9.57,0,0,0,.62,2.11,4.75,4.75,0,0,0,1.06,1.61m4.23,4.49h-.19c-3-.12-6.34-1.35-7.82-5-1.85-4.52-.58-6.92,1.36-7.18l.29,0c1.79,0,3,2.17,3.7,4.14,1.53,4.43,4.33,5.32,6.33,5.32a6.86,6.86,0,0,0,2.37-.41s-2.84,3.14-6,3.14Z"/></g><g class="cls-20"><path class="cls-7" d="M-26,210.36a20.74,20.74,0,0,0,3.26-9.74,60.85,60.85,0,0,0,.13-6.86,44.73,44.73,0,0,1,.28-7.57,20.84,20.84,0,0,1,7.64-13.07,13.89,13.89,0,0,1,4.85-2.55c-.24.14-.47.29-.69.44-3.16,2.22-5.32,6-6.1,10.74a47,47,0,0,0-.4,8.06c0,.9,0,1.81,0,2.71-.08,6.11-1.29,10.68-3.68,13.95a10.79,10.79,0,0,1-5.3,3.89m-2.12,3.27c3.77,0,7.49-2.28,9.79-5.42,3.25-4.44,4.18-10.16,4.25-15.66,0-3.44-.2-6.92.36-10.32s2.06-6.82,4.88-8.81A8.29,8.29,0,0,1-4.21,172a6.4,6.4,0,0,1,4.79,1.95c-.35-3.53-3.79-6.22-7.32-6.55a7.72,7.72,0,0,0-1-.05,14.79,14.79,0,0,0-8.85,3.48,23.86,23.86,0,0,0-8.73,14.95c-.74,4.81,0,9.74-.43,14.6s-2.56,10.06-7,12a8.88,8.88,0,0,0,4.56,1.24Z"/></g><g class="cls-21"><g class="cls-22"><path class="cls-7" d="M148.62,163.42a20.34,20.34,0,0,0-8,3.9,9.79,9.79,0,0,0-2.43,3.22,16.65,16.65,0,0,0-.72,1.86,14.69,14.69,0,0,0-.37,2,27,27,0,0,0,.58,8.53,66.13,66.13,0,0,0,2.35,8.71c.89,2.92,2,5.81,3,8.75s2.09,6,2.92,9a94.24,94.24,0,0,1,2.37,9.26c.13.84.2,1.55.35,2.3l.46,2.28c.33,1.53.65,3.09.94,4.65v0a.14.14,0,0,1-.12.17.14.14,0,0,1-.16-.09l-1.6-4.42a41.83,41.83,0,0,1-1.37-4.51c-.86-3-2-5.93-3-8.88-2.09-5.9-4.61-11.65-6.57-17.63a64.78,64.78,0,0,1-2.29-9.15,26.67,26.67,0,0,1-.12-9.43,12.15,12.15,0,0,1,4.9-7.91,18.94,18.94,0,0,1,8.92-2.92.15.15,0,0,1,.16.13.14.14,0,0,1-.11.15Z"/></g><g class="cls-23"><path class="cls-7" d="M148.6,163.42a20.34,20.34,0,0,1,8,3.9,9.79,9.79,0,0,1,2.43,3.22,14.91,14.91,0,0,1,.72,1.86,14.69,14.69,0,0,1,.37,2,26.71,26.71,0,0,1-.58,8.53,66.13,66.13,0,0,1-2.35,8.71c-.89,2.92-2,5.81-3,8.75s-2.09,6-2.92,9a94.24,94.24,0,0,0-2.37,9.26c-.13.84-.2,1.55-.35,2.3l-.46,2.28c-.33,1.53-.65,3.09-.94,4.65v0a.14.14,0,0,0,.12.17.14.14,0,0,0,.16-.09l1.6-4.42a41.83,41.83,0,0,0,1.37-4.51c.86-3,2-5.93,3-8.88,2.09-5.9,4.61-11.65,6.57-17.63a64.78,64.78,0,0,0,2.29-9.15,26.67,26.67,0,0,0,.12-9.43,12.17,12.17,0,0,0-4.89-7.91,19,19,0,0,0-8.92-2.92.14.14,0,0,0-.16.13.13.13,0,0,0,.1.15Z"/></g></g><g class="cls-24"><path class="cls-7" d="M163.73,166.16a10.77,10.77,0,0,1,5.31,3.89c2.39,3.27,3.6,7.84,3.68,13.95,0,.9,0,1.81,0,2.71a47,47,0,0,0,.4,8.06c.78,4.7,2.94,8.52,6.1,10.74l.68.44a13.85,13.85,0,0,1-4.84-2.55,20.8,20.8,0,0,1-7.64-13.07,43.71,43.71,0,0,1-.28-7.57,60.85,60.85,0,0,0-.13-6.86,20.64,20.64,0,0,0-3.27-9.74m-2.11-3.27a8.94,8.94,0,0,0-4.57,1.24c4.46,2,6.57,7.19,7,12s-.32,9.79.43,14.6a23.77,23.77,0,0,0,8.73,14.94,14.74,14.74,0,0,0,8.85,3.49c.32,0,.64,0,1,0,3.53-.33,7-3,7.32-6.55a6.42,6.42,0,0,1-4.79,2,8.24,8.24,0,0,1-4.67-1.45c-2.82-2-4.32-5.41-4.88-8.81s-.31-6.88-.36-10.33c-.07-5.49-1-11.21-4.25-15.65-2.3-3.14-6-5.42-9.79-5.42Z"/></g><g class="cls-25"><path class="cls-7" d="M133.49,166.16a10.77,10.77,0,0,0-5.31,3.89c-2.39,3.27-3.6,7.84-3.68,13.95,0,.9,0,1.81,0,2.71a47,47,0,0,1-.4,8.06c-.78,4.7-2.94,8.52-6.1,10.74l-.68.44a13.85,13.85,0,0,0,4.84-2.55,20.8,20.8,0,0,0,7.64-13.07,43.71,43.71,0,0,0,.28-7.57,60.85,60.85,0,0,1,.13-6.86,20.64,20.64,0,0,1,3.27-9.74m2.11-3.27a8.94,8.94,0,0,1,4.57,1.24c-4.46,2-6.57,7.19-7,12s.32,9.79-.43,14.6A23.77,23.77,0,0,1,124,205.71a14.74,14.74,0,0,1-8.85,3.49c-.32,0-.64,0-1,0-3.53-.33-7-3-7.32-6.55a6.42,6.42,0,0,0,4.79,2,8.24,8.24,0,0,0,4.67-1.45c2.82-2,4.32-5.41,4.88-8.81s.31-6.88.36-10.33c.07-5.49,1-11.21,4.25-15.65,2.3-3.14,6-5.42,9.79-5.42Z"/></g><path class="cls-7" d="M149,157.22c-4.64,0-8.4.92-8.4,2.06s3.76,2.06,8.4,2.06,8.4-.93,8.4-2.06-3.76-2.06-8.4-2.06Z"/><path class="cls-7" d="M149,143.76a7.56,7.56,0,0,1,1,3.51,10.64,10.64,0,0,1-1,4.95,10.77,10.77,0,0,1-1-4.95,7.63,7.63,0,0,1,1-3.51m0-4.88s-4,3.75-4,8.39,1.77,8.4,4,8.4,4-3.76,4-8.4-4-8.39-4-8.39Z"/><g class="cls-26"><path class="cls-7" d="M138.69,148a4.75,4.75,0,0,1,1.06,1.61,9.13,9.13,0,0,1,.62,2.1,8.52,8.52,0,0,1-.46-1.12,14,14,0,0,0-1.22-2.59m-4.23-4.49c-3.19,0-6,3.14-6,3.14a6.83,6.83,0,0,1,2.36-.41c2,0,4.8.89,6.34,5.31.68,2,1.91,4.15,3.69,4.15l.3,0c1.94-.26,3.2-2.66,1.36-7.18-1.49-3.64-4.78-4.87-7.83-5Z"/></g><g class="cls-27"><path class="cls-7" d="M158.28,148a4.75,4.75,0,0,0-1.06,1.61,10.27,10.27,0,0,0-.62,2.1,10,10,0,0,0,.47-1.12,13.83,13.83,0,0,1,1.21-2.59m4.23-4.49c3.2,0,6,3.14,6,3.14a6.86,6.86,0,0,0-2.37-.41c-2,0-4.79.89-6.33,5.31-.69,2-1.91,4.15-3.7,4.15l-.29,0c-1.94-.26-3.21-2.66-1.36-7.18,1.48-3.64,4.77-4.87,7.82-5Z"/></g><g class="cls-28"><g class="cls-29"><path class="cls-7" d="M338.4,213.1a20.61,20.61,0,0,1-8-3.9,9.79,9.79,0,0,1-2.43-3.22,13.5,13.5,0,0,1-.72-1.86,14.69,14.69,0,0,1-.37-2,27,27,0,0,1,.57-8.53,67.77,67.77,0,0,1,2.36-8.71c.89-2.92,2-5.81,3-8.75s2.08-6,2.92-9a94.24,94.24,0,0,0,2.37-9.26c.13-.84.2-1.55.35-2.3l.46-2.28c.33-1.53.64-3.09.94-4.65v0a.15.15,0,0,0-.12-.17.14.14,0,0,0-.16.09L337.94,153a41.78,41.78,0,0,0-1.36,4.51c-.87,3-2,5.93-3,8.88-2.09,5.9-4.61,11.64-6.57,17.63a63.64,63.64,0,0,0-2.29,9.14,26.73,26.73,0,0,0-.12,9.44,12.13,12.13,0,0,0,4.89,7.91,19.09,19.09,0,0,0,8.92,2.92.14.14,0,0,0,.16-.13.15.15,0,0,0-.1-.16Z"/></g><g class="cls-30"><path class="cls-7" d="M338.37,213.1a20.72,20.72,0,0,0,8.05-3.9,9.93,9.93,0,0,0,2.43-3.22,14.86,14.86,0,0,0,.71-1.86,14.71,14.71,0,0,0,.38-2,27,27,0,0,0-.58-8.53,66.18,66.18,0,0,0-2.36-8.71c-.89-2.92-2-5.81-3-8.75s-2.09-6-2.93-9-1.74-6-2.37-9.26c-.13-.84-.19-1.55-.34-2.3l-.47-2.28c-.32-1.53-.64-3.09-.93-4.65v0a.13.13,0,0,1,.11-.17.15.15,0,0,1,.17.09l1.6,4.42a41.83,41.83,0,0,1,1.37,4.51c.86,3,2,5.93,3,8.88,2.09,5.9,4.61,11.64,6.56,17.63a65,65,0,0,1,2.3,9.14,26.73,26.73,0,0,1,.12,9.44,12.19,12.19,0,0,1-4.9,7.91,19.05,19.05,0,0,1-8.92,2.92.15.15,0,0,1-.16-.13.16.16,0,0,1,.11-.16Z"/></g></g><g class="cls-31"><path class="cls-7" d="M353.51,210.36a20.75,20.75,0,0,0,3.27-9.74,63.3,63.3,0,0,0,.13-6.86,44.75,44.75,0,0,1,.27-7.57,20.85,20.85,0,0,1,7.65-13.07,13.85,13.85,0,0,1,4.84-2.55L369,171c-3.16,2.22-5.33,6-6.1,10.74a46,46,0,0,0-.4,8.06c0,.9,0,1.81,0,2.71-.08,6.11-1.28,10.68-3.68,13.95a10.7,10.7,0,0,1-5.3,3.89m-2.12,3.27c3.77,0,7.49-2.28,9.8-5.42,3.25-4.44,4.18-10.16,4.25-15.66,0-3.44-.21-6.92.35-10.32s2.07-6.82,4.89-8.81a8.23,8.23,0,0,1,4.66-1.45,6.44,6.44,0,0,1,4.8,1.95c-.36-3.53-3.79-6.22-7.32-6.55a7.72,7.72,0,0,0-1-.05A14.79,14.79,0,0,0,363,170.8a23.83,23.83,0,0,0-8.74,14.95c-.74,4.81,0,9.74-.42,14.6s-2.56,10.06-7,12a8.93,8.93,0,0,0,4.56,1.24Z"/></g><g class="cls-32"><path class="cls-7" d="M323.26,210.36a20.74,20.74,0,0,1-3.26-9.74,60.85,60.85,0,0,1-.13-6.86,44.73,44.73,0,0,0-.28-7.57A20.84,20.84,0,0,0,312,173.12a13.94,13.94,0,0,0-4.84-2.55l.68.44c3.16,2.22,5.32,6,6.1,10.74a47,47,0,0,1,.4,8.06c0,.9,0,1.81,0,2.71.08,6.11,1.29,10.68,3.68,13.95a10.79,10.79,0,0,0,5.3,3.89m2.12,3.27c-3.77,0-7.49-2.28-9.79-5.42-3.25-4.44-4.18-10.16-4.25-15.66,0-3.44.2-6.92-.36-10.32s-2.06-6.82-4.88-8.81a8.26,8.26,0,0,0-4.67-1.45,6.42,6.42,0,0,0-4.79,1.95c.35-3.53,3.79-6.22,7.32-6.55a7.72,7.72,0,0,1,1-.05,14.79,14.79,0,0,1,8.85,3.48,23.86,23.86,0,0,1,8.73,14.95c.75,4.81,0,9.74.43,14.6s2.56,10.06,7,12a8.94,8.94,0,0,1-4.57,1.24Z"/></g><path class="cls-7" d="M338.78,219.3c-4.64,0-8.4-.92-8.4-2.06s3.76-2.06,8.4-2.06,8.4.92,8.4,2.06-3.76,2.06-8.4,2.06Z"/><path class="cls-7" d="M338.78,232.76a7.59,7.59,0,0,0,1-3.51,10.8,10.8,0,0,0-1-4.95,10.64,10.64,0,0,0-1,4.95,7.63,7.63,0,0,0,1,3.51m0,4.88s-4-3.76-4-8.39,1.77-8.4,4-8.4,4,3.76,4,8.4-4,8.39-4,8.39Z"/><g class="cls-33"><path class="cls-7" d="M328.47,228.55a13.22,13.22,0,0,0,1.21-2.59,11.15,11.15,0,0,1,.47-1.13,9,9,0,0,1-.62,2.11,4.75,4.75,0,0,1-1.06,1.61M324.24,233h.19c3.05-.12,6.34-1.35,7.82-5,1.85-4.52.59-6.92-1.36-7.18l-.29,0c-1.78,0-3,2.17-3.7,4.14-1.53,4.43-4.32,5.32-6.33,5.32a6.93,6.93,0,0,1-2.37-.41s2.84,3.14,6,3.14Z"/></g><g class="cls-34"><path class="cls-7" d="M348.06,228.55a13.83,13.83,0,0,1-1.21-2.59,11.15,11.15,0,0,0-.47-1.13,9.57,9.57,0,0,0,.62,2.11,4.75,4.75,0,0,0,1.06,1.61m4.23,4.49h-.19c-3.05-.12-6.34-1.35-7.82-5-1.85-4.52-.58-6.92,1.36-7.18l.29,0c1.79,0,3,2.17,3.7,4.14,1.53,4.43,4.32,5.32,6.33,5.32a6.86,6.86,0,0,0,2.37-.41s-2.84,3.14-6,3.14Z"/></g><g class="cls-35"><g class="cls-36"><path class="cls-7" d="M53.74,289.18a20.38,20.38,0,0,0-8.05,3.9,9.79,9.79,0,0,0-2.43,3.22,16.65,16.65,0,0,0-.72,1.86,16.41,16.41,0,0,0-.37,2,27,27,0,0,0,.58,8.53,65.07,65.07,0,0,0,2.36,8.71c.88,2.92,2,5.81,3,8.75s2.09,6,2.93,9a94.23,94.23,0,0,1,2.36,9.26c.14.84.2,1.55.35,2.3l.46,2.28c.33,1.53.65,3.08.94,4.65v0a.13.13,0,0,1-.11.17.16.16,0,0,1-.17-.09l-1.6-4.42a41.83,41.83,0,0,1-1.37-4.51c-.86-3-2-5.93-3-8.88-2.09-5.9-4.61-11.65-6.56-17.63a64.81,64.81,0,0,1-2.3-9.15,26.67,26.67,0,0,1-.12-9.43,12.15,12.15,0,0,1,4.9-7.91,18.94,18.94,0,0,1,8.92-2.92.15.15,0,0,1,.16.13.15.15,0,0,1-.11.15Z"/></g><g class="cls-37"><path class="cls-7" d="M53.71,289.18a20.34,20.34,0,0,1,8,3.9,9.79,9.79,0,0,1,2.43,3.22,14.91,14.91,0,0,1,.72,1.86,14.69,14.69,0,0,1,.37,2,26.73,26.73,0,0,1-.58,8.53,66.55,66.55,0,0,1-2.35,8.71c-.89,2.92-2,5.81-3,8.75s-2.09,6-2.92,9A94.24,94.24,0,0,0,54,344.41c-.13.84-.2,1.55-.35,2.3L53.22,349c-.33,1.53-.65,3.08-.94,4.65v0a.14.14,0,0,0,.12.17.15.15,0,0,0,.16-.09l1.61-4.42a44.16,44.16,0,0,0,1.36-4.51c.86-3,2-5.93,3-8.88,2.09-5.9,4.61-11.65,6.57-17.63a64.78,64.78,0,0,0,2.29-9.15,26.67,26.67,0,0,0,.12-9.43,12.17,12.17,0,0,0-4.89-7.91,19,19,0,0,0-8.92-2.92.14.14,0,0,0-.16.13.13.13,0,0,0,.1.15Z"/></g></g><g class="cls-38"><path class="cls-7" d="M68.85,291.92a10.72,10.72,0,0,1,5.3,3.89c2.39,3.27,3.6,7.84,3.68,13.95,0,.9,0,1.81,0,2.71a47,47,0,0,0,.4,8.06c.78,4.7,2.94,8.52,6.1,10.73.22.16.45.31.68.45a13.94,13.94,0,0,1-4.84-2.55,20.84,20.84,0,0,1-7.64-13.08,43.6,43.6,0,0,1-.28-7.56,60.85,60.85,0,0,0-.13-6.86,20.74,20.74,0,0,0-3.26-9.74m-2.12-3.28a9,9,0,0,0-4.57,1.25c4.46,2,6.57,7.19,7,12s-.32,9.79.43,14.6a23.82,23.82,0,0,0,8.73,14.94A14.74,14.74,0,0,0,87.19,335c.32,0,.64,0,1,0,3.53-.33,7-3,7.32-6.55a6.42,6.42,0,0,1-4.79,1.95A8.2,8.2,0,0,1,86,328.85c-2.82-2-4.32-5.4-4.88-8.8s-.31-6.88-.36-10.33c-.07-5.49-1-11.22-4.25-15.65-2.3-3.14-6-5.43-9.79-5.43Z"/></g><g class="cls-39"><path class="cls-7" d="M38.6,291.92a10.64,10.64,0,0,0-5.3,3.89c-2.4,3.27-3.6,7.84-3.69,13.95,0,.9,0,1.81,0,2.71a46,46,0,0,1-.4,8.06c-.77,4.7-2.94,8.52-6.1,10.73-.22.16-.45.31-.68.45a13.85,13.85,0,0,0,4.84-2.55,20.85,20.85,0,0,0,7.65-13.08,44.64,44.64,0,0,0,.27-7.56,63.3,63.3,0,0,1,.13-6.86,20.64,20.64,0,0,1,3.27-9.74m2.12-3.28a8.94,8.94,0,0,1,4.56,1.25c-4.46,2-6.57,7.19-7,12s.32,9.79-.42,14.6a23.78,23.78,0,0,1-8.74,14.94A14.74,14.74,0,0,1,20.25,335c-.32,0-.64,0-1,0-3.53-.33-7-3-7.32-6.55a6.44,6.44,0,0,0,4.8,1.95,8.17,8.17,0,0,0,4.66-1.46c2.82-2,4.33-5.4,4.89-8.8s.3-6.88.35-10.33c.07-5.49,1-11.22,4.25-15.65,2.31-3.14,6-5.43,9.8-5.43Z"/></g><path class="cls-7" d="M54.11,283c-4.64,0-8.4.92-8.4,2.06s3.76,2.06,8.4,2.06,8.4-.93,8.4-2.06S58.75,283,54.11,283Z"/><path class="cls-7" d="M54.11,269.52a7.56,7.56,0,0,1,1,3.51,10.64,10.64,0,0,1-1,5,10.8,10.8,0,0,1-1-5,7.59,7.59,0,0,1,1-3.51m0-4.89s-4,3.76-4,8.4,1.77,8.4,4,8.4,4-3.76,4-8.4-4-8.4-4-8.4Z"/><g class="cls-40"><path class="cls-7" d="M43.81,273.73a4.88,4.88,0,0,1,1,1.61,9.13,9.13,0,0,1,.62,2.1,8.52,8.52,0,0,1-.46-1.12,13.83,13.83,0,0,0-1.21-2.59m-4.24-4.49c-3.19,0-6,3.14-6,3.14A6.83,6.83,0,0,1,35.9,272c2,0,4.8.89,6.34,5.31.68,2,1.91,4.15,3.69,4.15l.3,0c1.94-.26,3.2-2.66,1.36-7.18-1.48-3.64-4.77-4.87-7.83-5Z"/></g><g class="cls-41"><path class="cls-7" d="M63.39,273.73a4.73,4.73,0,0,0-1,1.61,9.8,9.8,0,0,0-.63,2.1,10,10,0,0,0,.47-1.12,13.83,13.83,0,0,1,1.21-2.59m4.23-4.49c3.2,0,6,3.14,6,3.14A6.83,6.83,0,0,0,71.3,272c-2,0-4.8.89-6.34,5.31-.68,2-1.91,4.15-3.69,4.15l-.3,0c-1.94-.26-3.2-2.66-1.36-7.18,1.48-3.64,4.77-4.87,7.82-5Z"/></g><g class="cls-42"><g class="cls-43"><path class="cls-7" d="M243.51,338.86a20.61,20.61,0,0,1-8-3.9,9.79,9.79,0,0,1-2.43-3.22,15.54,15.54,0,0,1-.72-1.86,15,15,0,0,1-.37-2,26.79,26.79,0,0,1,.58-8.54,66.41,66.41,0,0,1,2.35-8.7c.89-2.92,2-5.81,3-8.75s2.09-6,2.92-9a95,95,0,0,0,2.37-9.26c.13-.84.2-1.55.35-2.3l.46-2.28c.33-1.54.65-3.09.94-4.65v0a.14.14,0,0,0-.12-.17.13.13,0,0,0-.16.09l-1.61,4.42a44.16,44.16,0,0,0-1.36,4.51c-.86,3-2,5.93-3,8.88-2.09,5.9-4.61,11.64-6.57,17.62a65.47,65.47,0,0,0-2.29,9.15,26.73,26.73,0,0,0-.12,9.44,12.17,12.17,0,0,0,4.89,7.91,19.09,19.09,0,0,0,8.92,2.92.14.14,0,0,0,.16-.13.14.14,0,0,0-.1-.16Z"/></g><g class="cls-44"><path class="cls-7" d="M243.48,338.86a20.58,20.58,0,0,0,8.05-3.9,9.79,9.79,0,0,0,2.43-3.22,17.44,17.44,0,0,0,.72-1.86,16.77,16.77,0,0,0,.37-2,27.09,27.09,0,0,0-.58-8.54,66.41,66.41,0,0,0-2.35-8.7c-.89-2.92-2-5.81-3-8.75s-2.09-6-2.93-9a95,95,0,0,1-2.36-9.26c-.13-.84-.2-1.55-.35-2.3l-.46-2.28c-.33-1.54-.65-3.09-.94-4.65v0a.14.14,0,0,1,.11-.17.14.14,0,0,1,.17.09l1.6,4.42a41.83,41.83,0,0,1,1.37,4.51c.86,3,2,5.93,3,8.88,2.09,5.9,4.61,11.64,6.57,17.62a66.9,66.9,0,0,1,2.29,9.15,26.73,26.73,0,0,1,.12,9.44,12.15,12.15,0,0,1-4.9,7.91,19.05,19.05,0,0,1-8.92,2.92.15.15,0,0,1-.16-.13.16.16,0,0,1,.11-.16Z"/></g></g><g class="cls-45"><path class="cls-7" d="M258.62,336.11a20.6,20.6,0,0,0,3.27-9.73,63.3,63.3,0,0,0,.13-6.86,44.75,44.75,0,0,1,.27-7.57,20.83,20.83,0,0,1,7.65-13.07,13.85,13.85,0,0,1,4.84-2.55l-.68.44c-3.16,2.22-5.33,6-6.1,10.74a46,46,0,0,0-.4,8.06c0,.9,0,1.8,0,2.7-.09,6.12-1.29,10.68-3.69,14a10.58,10.58,0,0,1-5.3,3.89m-2.12,3.28c3.78,0,7.49-2.28,9.8-5.42,3.25-4.44,4.18-10.16,4.25-15.66.05-3.44-.2-6.92.36-10.32s2.06-6.83,4.88-8.81a8.23,8.23,0,0,1,4.66-1.45,6.43,6.43,0,0,1,4.8,1.95c-.35-3.53-3.79-6.22-7.32-6.56-.32,0-.64,0-1,0a14.79,14.79,0,0,0-8.85,3.48,23.84,23.84,0,0,0-8.74,14.94c-.74,4.82,0,9.75-.42,14.61s-2.56,10.06-7,12a8.93,8.93,0,0,0,4.56,1.24Z"/></g><g class="cls-46"><path class="cls-7" d="M228.37,336.11a20.7,20.7,0,0,1-3.26-9.73,60.85,60.85,0,0,1-.13-6.86,43.71,43.71,0,0,0-.28-7.57,20.81,20.81,0,0,0-7.64-13.07,13.94,13.94,0,0,0-4.84-2.55l.68.44c3.16,2.22,5.32,6,6.1,10.74a47,47,0,0,1,.4,8.06c0,.9,0,1.8,0,2.7.08,6.12,1.29,10.68,3.68,14a10.66,10.66,0,0,0,5.3,3.89m2.12,3.28c-3.77,0-7.49-2.28-9.79-5.42-3.25-4.44-4.18-10.16-4.25-15.66,0-3.44.2-6.92-.36-10.32s-2.06-6.83-4.88-8.81a8.26,8.26,0,0,0-4.67-1.45,6.42,6.42,0,0,0-4.79,1.95c.35-3.53,3.79-6.22,7.32-6.56.32,0,.64,0,1,0a14.79,14.79,0,0,1,8.85,3.48,23.87,23.87,0,0,1,8.73,14.94c.75,4.82,0,9.75.43,14.61s2.56,10.06,7,12a8.94,8.94,0,0,1-4.57,1.24Z"/></g><path class="cls-7" d="M243.89,345.06c-4.64,0-8.4-.92-8.4-2.06s3.76-2.06,8.4-2.06,8.4.92,8.4,2.06-3.76,2.06-8.4,2.06Z"/><path class="cls-7" d="M243.89,358.51a7.56,7.56,0,0,0,1-3.5,10.82,10.82,0,0,0-1-5,10.69,10.69,0,0,0-1,5,7.56,7.56,0,0,0,1,3.5m0,4.89s-4-3.76-4-8.39,1.77-8.4,4-8.4,4,3.76,4,8.4-4,8.39-4,8.39Z"/><g class="cls-47"><path class="cls-7" d="M233.58,354.31a14,14,0,0,0,1.22-2.59,9.35,9.35,0,0,1,.46-1.13,9,9,0,0,1-.62,2.11,4.75,4.75,0,0,1-1.06,1.61m-4.23,4.49h.19c3.05-.12,6.34-1.35,7.83-5,1.84-4.52.58-6.93-1.37-7.18l-.29,0c-1.78,0-3,2.17-3.7,4.14-1.53,4.42-4.32,5.32-6.33,5.32a6.93,6.93,0,0,1-2.37-.41s2.84,3.14,6,3.14Z"/></g><g class="cls-48"><path class="cls-7" d="M253.17,354.31a13.83,13.83,0,0,1-1.21-2.59,11.15,11.15,0,0,0-.47-1.13,9.57,9.57,0,0,0,.62,2.11,4.75,4.75,0,0,0,1.06,1.61m4.23,4.49h-.19c-3-.12-6.34-1.35-7.82-5-1.85-4.52-.58-6.93,1.36-7.18l.29,0c1.79,0,3,2.17,3.7,4.14,1.53,4.42,4.33,5.32,6.33,5.32a6.86,6.86,0,0,0,2.37-.41s-2.84,3.14-6,3.14Z"/></g><g class="cls-49"><path class="cls-7" d="M-26,461.87a20.7,20.7,0,0,0,3.26-9.73,60.85,60.85,0,0,0,.13-6.86,44.73,44.73,0,0,1,.28-7.57,20.81,20.81,0,0,1,7.64-13.07,13.89,13.89,0,0,1,4.85-2.55c-.24.14-.47.29-.69.44-3.16,2.22-5.32,6-6.1,10.74a46.92,46.92,0,0,0-.4,8.06c0,.9,0,1.8,0,2.7-.08,6.12-1.29,10.68-3.68,14a10.66,10.66,0,0,1-5.3,3.89m-2.12,3.28c3.77,0,7.49-2.28,9.79-5.43,3.25-4.43,4.18-10.15,4.25-15.65,0-3.45-.2-6.92.36-10.32s2.06-6.83,4.88-8.81a8.29,8.29,0,0,1,4.67-1.45,6.4,6.4,0,0,1,4.79,1.95c-.35-3.54-3.79-6.22-7.32-6.56-.32,0-.64,0-1,0a14.79,14.79,0,0,0-8.85,3.48,23.84,23.84,0,0,0-8.73,14.94c-.74,4.82,0,9.75-.43,14.61s-2.56,10.06-7,12a8.88,8.88,0,0,0,4.56,1.24Z"/></g><g class="cls-50"><g class="cls-51"><path class="cls-7" d="M148.62,414.94a20.34,20.34,0,0,0-8,3.9,9.79,9.79,0,0,0-2.43,3.22,16.65,16.65,0,0,0-.72,1.86,14.69,14.69,0,0,0-.37,2,27,27,0,0,0,.58,8.53,66.55,66.55,0,0,0,2.35,8.71c.89,2.92,2,5.81,3,8.75s2.09,6,2.92,9a94.44,94.44,0,0,1,2.37,9.27c.13.84.2,1.55.35,2.3l.46,2.28c.33,1.53.65,3.08.94,4.64v0a.14.14,0,0,1-.12.17.15.15,0,0,1-.16-.09l-1.6-4.42a43.24,43.24,0,0,1-1.37-4.51c-.86-3-2-5.94-3-8.88-2.09-5.91-4.61-11.65-6.57-17.63a64.78,64.78,0,0,1-2.29-9.15,26.68,26.68,0,0,1-.12-9.43,12.17,12.17,0,0,1,4.9-7.92,19,19,0,0,1,8.92-2.91.15.15,0,0,1,.16.13.15.15,0,0,1-.11.15Z"/></g><g class="cls-52"><path class="cls-7" d="M148.6,414.94a20.34,20.34,0,0,1,8,3.9,9.79,9.79,0,0,1,2.43,3.22,14.91,14.91,0,0,1,.72,1.86,14.69,14.69,0,0,1,.37,2,26.73,26.73,0,0,1-.58,8.53,66.55,66.55,0,0,1-2.35,8.71c-.89,2.92-2,5.81-3,8.75s-2.09,6-2.92,9a94.44,94.44,0,0,0-2.37,9.27c-.13.84-.2,1.55-.35,2.3l-.46,2.28c-.33,1.53-.65,3.08-.94,4.64v0a.14.14,0,0,0,.12.17.15.15,0,0,0,.16-.09l1.6-4.42a43.24,43.24,0,0,0,1.37-4.51c.86-3,2-5.94,3-8.88,2.09-5.91,4.61-11.65,6.57-17.63a64.78,64.78,0,0,0,2.29-9.15,26.68,26.68,0,0,0,.12-9.43,12.19,12.19,0,0,0-4.89-7.92,19.08,19.08,0,0,0-8.92-2.91.14.14,0,0,0-.16.13.13.13,0,0,0,.1.15Z"/></g></g><g class="cls-53"><path class="cls-7" d="M163.73,417.68a10.71,10.71,0,0,1,5.31,3.89c2.39,3.27,3.6,7.83,3.68,13.95,0,.9,0,1.8,0,2.71a47,47,0,0,0,.4,8.06c.78,4.7,2.94,8.52,6.1,10.73.22.16.45.31.68.45a13.85,13.85,0,0,1-4.84-2.55,20.79,20.79,0,0,1-7.64-13.08,43.67,43.67,0,0,1-.28-7.57,60.72,60.72,0,0,0-.13-6.85,20.64,20.64,0,0,0-3.27-9.74m-2.11-3.28a9,9,0,0,0-4.57,1.25c4.46,2,6.57,7.19,7,12s-.32,9.78.43,14.6a23.8,23.8,0,0,0,8.73,14.94,14.74,14.74,0,0,0,8.85,3.49c.32,0,.64,0,1-.05,3.53-.33,7-3,7.32-6.55a6.42,6.42,0,0,1-4.79,1.95,8.17,8.17,0,0,1-4.67-1.46c-2.82-2-4.32-5.4-4.88-8.8s-.31-6.88-.36-10.33c-.07-5.49-1-11.22-4.25-15.65-2.3-3.14-6-5.43-9.79-5.43Z"/></g><g class="cls-54"><path class="cls-7" d="M133.49,417.68a10.71,10.71,0,0,0-5.31,3.89c-2.39,3.27-3.6,7.83-3.68,13.95,0,.9,0,1.8,0,2.71a47,47,0,0,1-.4,8.06c-.78,4.7-2.94,8.52-6.1,10.73-.22.16-.45.31-.68.45a13.85,13.85,0,0,0,4.84-2.55,20.79,20.79,0,0,0,7.64-13.08,43.67,43.67,0,0,0,.28-7.57,60.72,60.72,0,0,1,.13-6.85,20.64,20.64,0,0,1,3.27-9.74m2.11-3.28a9,9,0,0,1,4.57,1.25c-4.46,2-6.57,7.19-7,12s.32,9.78-.43,14.6A23.77,23.77,0,0,1,124,457.23a14.74,14.74,0,0,1-8.85,3.49c-.32,0-.64,0-1-.05-3.53-.33-7-3-7.32-6.55a6.42,6.42,0,0,0,4.79,1.95,8.17,8.17,0,0,0,4.67-1.46c2.82-2,4.32-5.4,4.88-8.8s.31-6.88.36-10.33c.07-5.49,1-11.22,4.25-15.65,2.3-3.14,6-5.43,9.79-5.43Z"/></g><path class="cls-7" d="M149,408.74c-4.64,0-8.4.92-8.4,2.05s3.76,2.06,8.4,2.06,8.4-.92,8.4-2.06-3.76-2.05-8.4-2.05Z"/><path class="cls-7" d="M149,395.28a7.56,7.56,0,0,1,1,3.51,10.64,10.64,0,0,1-1,4.95,10.77,10.77,0,0,1-1-4.95,7.6,7.6,0,0,1,1-3.51m0-4.89s-4,3.76-4,8.4,1.77,8.4,4,8.4,4-3.76,4-8.4-4-8.4-4-8.4Z"/><g class="cls-55"><path class="cls-7" d="M138.69,399.48a4.9,4.9,0,0,1,1.06,1.62,9.13,9.13,0,0,1,.62,2.1,8.52,8.52,0,0,1-.46-1.12,14.32,14.32,0,0,0-1.22-2.6M134.46,395c-3.19,0-6,3.14-6,3.14a6.83,6.83,0,0,1,2.36-.41c2,0,4.8.89,6.34,5.31.68,2,1.91,4.15,3.69,4.15l.3,0c1.94-.26,3.2-2.66,1.36-7.19-1.49-3.63-4.78-4.86-7.83-5Z"/></g><g class="cls-56"><path class="cls-7" d="M158.28,399.48a4.9,4.9,0,0,0-1.06,1.62,10.27,10.27,0,0,0-.62,2.1,10,10,0,0,0,.47-1.12,14.17,14.17,0,0,1,1.21-2.6m4.23-4.48c3.2,0,6,3.14,6,3.14a6.86,6.86,0,0,0-2.37-.41c-2,0-4.79.89-6.33,5.31-.69,2-1.91,4.15-3.7,4.15l-.29,0c-1.94-.26-3.21-2.66-1.36-7.19,1.48-3.63,4.77-4.86,7.82-5Z"/></g><g class="cls-57"><g class="cls-58"><path class="cls-7" d="M338.4,464.62a20.61,20.61,0,0,1-8-3.9,9.9,9.9,0,0,1-2.43-3.22,14,14,0,0,1-.72-1.86,14.84,14.84,0,0,1-.37-2,27,27,0,0,1,.57-8.53,68.07,68.07,0,0,1,2.36-8.7c.89-2.92,2-5.81,3-8.75s2.08-6,2.92-9a95,95,0,0,0,2.37-9.26c.13-.85.2-1.55.35-2.3l.46-2.28c.33-1.54.64-3.09.94-4.65v0a.16.16,0,0,0-.12-.18.14.14,0,0,0-.16.1l-1.61,4.42a41.78,41.78,0,0,0-1.36,4.51c-.87,3-2,5.93-3,8.87-2.09,5.91-4.61,11.65-6.57,17.63a64.1,64.1,0,0,0-2.29,9.15,26.73,26.73,0,0,0-.12,9.44,12.13,12.13,0,0,0,4.89,7.91,19.09,19.09,0,0,0,8.92,2.92.14.14,0,0,0,.16-.13.15.15,0,0,0-.1-.16Z"/></g><g class="cls-59"><path class="cls-7" d="M338.37,464.62a20.72,20.72,0,0,0,8.05-3.9,10,10,0,0,0,2.43-3.22,15.48,15.48,0,0,0,.71-1.86,14.85,14.85,0,0,0,.38-2,27,27,0,0,0-.58-8.53,66.47,66.47,0,0,0-2.36-8.7c-.89-2.92-2-5.81-3-8.75s-2.09-6-2.93-9-1.74-6-2.37-9.26c-.13-.85-.19-1.55-.34-2.3l-.47-2.28c-.32-1.54-.64-3.09-.93-4.65v0a.15.15,0,0,1,.11-.18.16.16,0,0,1,.17.1l1.6,4.42A41.83,41.83,0,0,1,340.2,409c.86,3,2,5.93,3,8.87,2.09,5.91,4.61,11.65,6.56,17.63a65.51,65.51,0,0,1,2.3,9.15,26.73,26.73,0,0,1,.12,9.44,12.19,12.19,0,0,1-4.9,7.91,19.05,19.05,0,0,1-8.92,2.92.15.15,0,0,1-.16-.13.16.16,0,0,1,.11-.16Z"/></g></g><g class="cls-60"><path class="cls-7" d="M353.51,461.87a20.71,20.71,0,0,0,3.27-9.73,63.3,63.3,0,0,0,.13-6.86,44.75,44.75,0,0,1,.27-7.57,20.83,20.83,0,0,1,7.65-13.07,13.85,13.85,0,0,1,4.84-2.55l-.68.44c-3.16,2.22-5.33,6-6.1,10.74a45.93,45.93,0,0,0-.4,8.06c0,.9,0,1.8,0,2.7-.08,6.12-1.28,10.68-3.68,14a10.58,10.58,0,0,1-5.3,3.89m-2.12,3.28c3.77,0,7.49-2.28,9.8-5.43,3.25-4.43,4.18-10.15,4.25-15.65,0-3.45-.21-6.92.35-10.32s2.07-6.83,4.89-8.81a8.23,8.23,0,0,1,4.66-1.45,6.44,6.44,0,0,1,4.8,1.95c-.36-3.54-3.79-6.22-7.32-6.56-.32,0-.64,0-1,0a14.79,14.79,0,0,0-8.85,3.48,23.81,23.81,0,0,0-8.74,14.94c-.74,4.82,0,9.75-.42,14.61s-2.56,10.06-7,12a8.93,8.93,0,0,0,4.56,1.24Z"/></g><g class="cls-61"><path class="cls-7" d="M323.26,461.87a20.7,20.7,0,0,1-3.26-9.73,60.85,60.85,0,0,1-.13-6.86,44.73,44.73,0,0,0-.28-7.57A20.81,20.81,0,0,0,312,424.64a13.94,13.94,0,0,0-4.84-2.55l.68.44c3.16,2.22,5.32,6,6.1,10.74a46.92,46.92,0,0,1,.4,8.06c0,.9,0,1.8,0,2.7.08,6.12,1.29,10.68,3.68,14a10.66,10.66,0,0,0,5.3,3.89m2.12,3.28c-3.77,0-7.49-2.28-9.79-5.43-3.25-4.43-4.18-10.15-4.25-15.65,0-3.45.2-6.92-.36-10.32s-2.06-6.83-4.88-8.81a8.26,8.26,0,0,0-4.67-1.45,6.42,6.42,0,0,0-4.79,1.95c.35-3.54,3.79-6.22,7.32-6.56.32,0,.64,0,1,0a14.79,14.79,0,0,1,8.85,3.48,23.84,23.84,0,0,1,8.73,14.94c.75,4.82,0,9.75.43,14.61s2.56,10.06,7,12a8.94,8.94,0,0,1-4.57,1.24Z"/></g><path class="cls-7" d="M338.78,470.82c-4.64,0-8.4-.92-8.4-2.06s3.76-2.06,8.4-2.06,8.4.92,8.4,2.06-3.76,2.06-8.4,2.06Z"/><path class="cls-7" d="M338.78,484.27a7.55,7.55,0,0,0,1-3.51,10.84,10.84,0,0,0-1-4.95,10.67,10.67,0,0,0-1,4.95,7.56,7.56,0,0,0,1,3.51m0,4.89s-4-3.76-4-8.4,1.77-8.39,4-8.39,4,3.76,4,8.39-4,8.4-4,8.4Z"/><g class="cls-62"><path class="cls-7" d="M328.47,480.07a13.22,13.22,0,0,0,1.21-2.59,11.15,11.15,0,0,1,.47-1.13,9.33,9.33,0,0,1-.62,2.11,4.75,4.75,0,0,1-1.06,1.61m-4.23,4.49h.19c3.05-.13,6.34-1.35,7.82-5,1.85-4.52.59-6.93-1.36-7.18a1.42,1.42,0,0,0-.29,0c-1.78,0-3,2.17-3.7,4.14-1.53,4.42-4.32,5.32-6.33,5.32a6.78,6.78,0,0,1-2.37-.42s2.84,3.15,6,3.15Z"/></g><g class="cls-63"><path class="cls-7" d="M348.06,480.07a13.83,13.83,0,0,1-1.21-2.59,11.15,11.15,0,0,0-.47-1.13,9.89,9.89,0,0,0,.62,2.11,4.75,4.75,0,0,0,1.06,1.61m4.23,4.49h-.19c-3.05-.13-6.34-1.35-7.82-5-1.85-4.52-.58-6.93,1.36-7.18a1.46,1.46,0,0,1,.29,0c1.79,0,3,2.17,3.7,4.14,1.53,4.42,4.32,5.32,6.33,5.32a6.71,6.71,0,0,0,2.37-.42s-2.84,3.15-6,3.15Z"/></g></g></g></g></svg>